<svg xmlns="http://www.w3.org/2000/svg" viewBox="0 0 640 512" width="800" height="640">
  <defs>
    <linearGradient id="g" x1="0" x2="1" y1="0" y2="1">
      <stop offset="0" stop-color="#5b6bff" />
      <stop offset="1" stop-color="#3551d0" />
    </linearGradient>
  </defs>
  <g fill="none" fill-rule="evenodd">
    <path d="M462.3 62.6c-54.5-46.4-136-38.3-186.4 13L320 41.1l44-26.5c-50.5-51.2-131.9-59.4-186.4-13C92.4 90.8 88 160.2 128.6 218 169.7 276.6 320 416 320 416s150.3-139.4 191.4-198C552 160.2 547.6 90.8 462.3 62.6z" fill="url(#g)" opacity="0.95"/>
    <path d="M320 464s-93.6-84.6-150.6-147C61.6 263.6 56 212 87.4 180.7 113.8 154.1 161.3 151 199 178.4 233 203 256 240 256 240s23-37 57-61.6C321.8 151 369.2 154.1 395.6 180.7c31.4 31.3 25.8 83 18 137.3C413.6 379.4 320 464 320 464z" fill="#fff" opacity="0.06"/>
  </g>
</svg>
